%TF.GenerationSoftware,KiCad,Pcbnew,6.0.2+dfsg-1*%
%TF.CreationDate,2024-04-12T04:35:11+02:00*%
%TF.ProjectId,seatel,73656174-656c-42e6-9b69-6361645f7063,rev?*%
%TF.SameCoordinates,Original*%
%TF.FileFunction,Soldermask,Top*%
%TF.FilePolarity,Negative*%
%FSLAX46Y46*%
G04 Gerber Fmt 4.6, Leading zero omitted, Abs format (unit mm)*
G04 Created by KiCad (PCBNEW 6.0.2+dfsg-1) date 2024-04-12 04:35:11*
%MOMM*%
%LPD*%
G01*
G04 APERTURE LIST*
G04 Aperture macros list*
%AMRoundRect*
0 Rectangle with rounded corners*
0 $1 Rounding radius*
0 $2 $3 $4 $5 $6 $7 $8 $9 X,Y pos of 4 corners*
0 Add a 4 corners polygon primitive as box body*
4,1,4,$2,$3,$4,$5,$6,$7,$8,$9,$2,$3,0*
0 Add four circle primitives for the rounded corners*
1,1,$1+$1,$2,$3*
1,1,$1+$1,$4,$5*
1,1,$1+$1,$6,$7*
1,1,$1+$1,$8,$9*
0 Add four rect primitives between the rounded corners*
20,1,$1+$1,$2,$3,$4,$5,0*
20,1,$1+$1,$4,$5,$6,$7,0*
20,1,$1+$1,$6,$7,$8,$9,0*
20,1,$1+$1,$8,$9,$2,$3,0*%
%AMFreePoly0*
4,1,17,1.395000,0.765000,0.855000,0.765000,0.855000,0.535000,1.395000,0.535000,1.395000,0.115000,0.855000,0.115000,0.855000,-0.115000,1.395000,-0.115000,1.395000,-0.535000,0.855000,-0.535000,0.855000,-0.765000,1.395000,-0.765000,1.395000,-1.185000,-0.855000,-1.185000,-0.855000,1.185000,1.395000,1.185000,1.395000,0.765000,1.395000,0.765000,$1*%
G04 Aperture macros list end*
%ADD10C,2.500000*%
%ADD11RoundRect,0.200000X-0.275000X0.200000X-0.275000X-0.200000X0.275000X-0.200000X0.275000X0.200000X0*%
%ADD12C,7.000000*%
%ADD13RoundRect,0.200000X0.200000X0.275000X-0.200000X0.275000X-0.200000X-0.275000X0.200000X-0.275000X0*%
%ADD14RoundRect,0.225000X0.225000X0.250000X-0.225000X0.250000X-0.225000X-0.250000X0.225000X-0.250000X0*%
%ADD15R,1.800000X2.500000*%
%ADD16C,3.000000*%
%ADD17C,2.000000*%
%ADD18RoundRect,0.150000X0.150000X-0.587500X0.150000X0.587500X-0.150000X0.587500X-0.150000X-0.587500X0*%
%ADD19RoundRect,0.250000X-0.312500X-0.625000X0.312500X-0.625000X0.312500X0.625000X-0.312500X0.625000X0*%
%ADD20RoundRect,0.225000X0.250000X-0.225000X0.250000X0.225000X-0.250000X0.225000X-0.250000X-0.225000X0*%
%ADD21RoundRect,0.218750X0.256250X-0.218750X0.256250X0.218750X-0.256250X0.218750X-0.256250X-0.218750X0*%
%ADD22RoundRect,0.200000X-0.200000X-0.275000X0.200000X-0.275000X0.200000X0.275000X-0.200000X0.275000X0*%
%ADD23RoundRect,0.250000X0.625000X-0.312500X0.625000X0.312500X-0.625000X0.312500X-0.625000X-0.312500X0*%
%ADD24RoundRect,0.200000X0.275000X-0.200000X0.275000X0.200000X-0.275000X0.200000X-0.275000X-0.200000X0*%
%ADD25RoundRect,0.225000X-0.225000X-0.250000X0.225000X-0.250000X0.225000X0.250000X-0.225000X0.250000X0*%
%ADD26RoundRect,0.150000X-0.150000X0.725000X-0.150000X-0.725000X0.150000X-0.725000X0.150000X0.725000X0*%
%ADD27RoundRect,0.087500X-0.425000X-0.087500X0.425000X-0.087500X0.425000X0.087500X-0.425000X0.087500X0*%
%ADD28RoundRect,0.087500X-0.087500X-0.425000X0.087500X-0.425000X0.087500X0.425000X-0.087500X0.425000X0*%
%ADD29R,2.100000X2.100000*%
%ADD30R,1.500000X1.500000*%
%ADD31C,1.500000*%
%ADD32C,2.200000*%
%ADD33O,2.200000X3.600000*%
%ADD34RoundRect,0.250000X0.325000X0.650000X-0.325000X0.650000X-0.325000X-0.650000X0.325000X-0.650000X0*%
%ADD35RoundRect,0.250000X-0.325000X-0.650000X0.325000X-0.650000X0.325000X0.650000X-0.325000X0.650000X0*%
%ADD36RoundRect,0.225000X-0.250000X0.225000X-0.250000X-0.225000X0.250000X-0.225000X0.250000X0.225000X0*%
%ADD37R,4.860000X3.360000*%
%ADD38R,1.400000X1.400000*%
%ADD39R,1.300000X1.600000*%
%ADD40R,0.700000X0.420000*%
%ADD41FreePoly0,0.000000*%
%ADD42RoundRect,0.250000X0.250000X0.475000X-0.250000X0.475000X-0.250000X-0.475000X0.250000X-0.475000X0*%
%ADD43RoundRect,0.250000X-0.475000X0.250000X-0.475000X-0.250000X0.475000X-0.250000X0.475000X0.250000X0*%
%ADD44C,4.000000*%
%ADD45R,1.600000X1.600000*%
%ADD46C,1.600000*%
%ADD47RoundRect,0.150000X-0.150000X0.587500X-0.150000X-0.587500X0.150000X-0.587500X0.150000X0.587500X0*%
%ADD48RoundRect,0.250000X0.475000X-0.250000X0.475000X0.250000X-0.475000X0.250000X-0.475000X-0.250000X0*%
%ADD49RoundRect,0.250000X0.600000X-0.600000X0.600000X0.600000X-0.600000X0.600000X-0.600000X-0.600000X0*%
%ADD50C,1.700000*%
%ADD51C,8.000000*%
%ADD52R,1.500000X2.500000*%
%ADD53O,1.500000X2.500000*%
%ADD54R,2.900680X5.400040*%
%ADD55C,0.990600*%
%ADD56C,0.787400*%
%ADD57RoundRect,0.087500X0.087500X-0.425000X0.087500X0.425000X-0.087500X0.425000X-0.087500X-0.425000X0*%
%ADD58RoundRect,0.087500X0.425000X-0.087500X0.425000X0.087500X-0.425000X0.087500X-0.425000X-0.087500X0*%
%ADD59RoundRect,0.150000X0.150000X-0.725000X0.150000X0.725000X-0.150000X0.725000X-0.150000X-0.725000X0*%
%ADD60RoundRect,0.250000X-1.750000X-1.000000X1.750000X-1.000000X1.750000X1.000000X-1.750000X1.000000X0*%
%ADD61C,2.050000*%
%ADD62C,2.250000*%
%ADD63RoundRect,0.250001X-1.099999X-1.099999X1.099999X-1.099999X1.099999X1.099999X-1.099999X1.099999X0*%
%ADD64C,2.700000*%
%ADD65RoundRect,0.250000X-0.250000X-0.475000X0.250000X-0.475000X0.250000X0.475000X-0.250000X0.475000X0*%
%ADD66R,1.700000X1.700000*%
%ADD67O,1.700000X1.700000*%
%ADD68RoundRect,0.075000X-0.650000X-0.075000X0.650000X-0.075000X0.650000X0.075000X-0.650000X0.075000X0*%
%ADD69R,1.500000X2.000000*%
%ADD70R,3.800000X2.000000*%
%ADD71RoundRect,0.150000X-0.150000X0.825000X-0.150000X-0.825000X0.150000X-0.825000X0.150000X0.825000X0*%
%ADD72RoundRect,0.150000X-0.150000X0.662500X-0.150000X-0.662500X0.150000X-0.662500X0.150000X0.662500X0*%
%ADD73R,3.200000X2.514000*%
%ADD74RoundRect,0.225000X0.017678X-0.335876X0.335876X-0.017678X-0.017678X0.335876X-0.335876X0.017678X0*%
%ADD75C,2.750000*%
%ADD76R,1.750000X1.750000*%
%ADD77C,1.750000*%
%ADD78C,3.250000*%
%ADD79C,2.600000*%
%ADD80C,1.890000*%
%ADD81R,1.900000X1.900000*%
%ADD82C,1.900000*%
%ADD83RoundRect,0.075000X-0.075000X0.725000X-0.075000X-0.725000X0.075000X-0.725000X0.075000X0.725000X0*%
%ADD84RoundRect,0.075000X-0.725000X0.075000X-0.725000X-0.075000X0.725000X-0.075000X0.725000X0.075000X0*%
%ADD85RoundRect,0.250000X-0.650000X0.325000X-0.650000X-0.325000X0.650000X-0.325000X0.650000X0.325000X0*%
%ADD86RoundRect,0.218750X-0.218750X-0.256250X0.218750X-0.256250X0.218750X0.256250X-0.218750X0.256250X0*%
%ADD87R,2.000000X1.500000*%
%ADD88R,2.000000X3.800000*%
%ADD89RoundRect,0.075000X0.662500X0.075000X-0.662500X0.075000X-0.662500X-0.075000X0.662500X-0.075000X0*%
%ADD90RoundRect,0.075000X0.075000X0.662500X-0.075000X0.662500X-0.075000X-0.662500X0.075000X-0.662500X0*%
%ADD91FreePoly0,180.000000*%
%ADD92RoundRect,0.050000X-0.225000X-0.050000X0.225000X-0.050000X0.225000X0.050000X-0.225000X0.050000X0*%
%ADD93RoundRect,0.050000X0.050000X-0.225000X0.050000X0.225000X-0.050000X0.225000X-0.050000X-0.225000X0*%
G04 APERTURE END LIST*
D10*
%TO.C,FID6*%
X70000000Y-155000000D03*
%TD*%
%TO.C,FID5*%
X70000000Y-105000000D03*
%TD*%
%TO.C,FID4*%
X190000000Y-105000000D03*
%TD*%
%TO.C,FID3*%
X370000000Y-105000000D03*
%TD*%
%TO.C,FID2*%
X190000000Y-155000000D03*
%TD*%
%TO.C,FID1*%
X370000000Y-155000000D03*
%TD*%
D11*
%TO.C,R73*%
X276500000Y-132675000D03*
X276500000Y-134325000D03*
%TD*%
D12*
%TO.C,H5*%
X375000000Y-176000000D03*
%TD*%
D13*
%TO.C,R84*%
X332825000Y-166750000D03*
X331175000Y-166750000D03*
%TD*%
D14*
%TO.C,C35*%
X320525000Y-167000000D03*
X318975000Y-167000000D03*
%TD*%
D15*
%TO.C,D8*%
X359000000Y-185500000D03*
X359000000Y-181500000D03*
%TD*%
D16*
%TO.C,J1*%
X148500000Y-110500000D03*
X148500000Y-85500000D03*
X193500000Y-85500000D03*
X193500000Y-110500000D03*
D17*
X159500000Y-74000000D03*
X155000000Y-74000000D03*
%TD*%
D18*
%TO.C,Q4*%
X346050000Y-168937500D03*
X347950000Y-168937500D03*
X347000000Y-167062500D03*
%TD*%
D19*
%TO.C,R52*%
X77037500Y-121500000D03*
X79962500Y-121500000D03*
%TD*%
D20*
%TO.C,C42*%
X153500000Y-168275000D03*
X153500000Y-166725000D03*
%TD*%
D21*
%TO.C,D27*%
X197250000Y-198787500D03*
X197250000Y-197212500D03*
%TD*%
D14*
%TO.C,C62*%
X306975000Y-106000000D03*
X305425000Y-106000000D03*
%TD*%
D13*
%TO.C,R66*%
X267825000Y-112500000D03*
X266175000Y-112500000D03*
%TD*%
D22*
%TO.C,R10*%
X300175000Y-176250000D03*
X301825000Y-176250000D03*
%TD*%
D18*
%TO.C,Q5*%
X342050000Y-168937500D03*
X343950000Y-168937500D03*
X343000000Y-167062500D03*
%TD*%
D11*
%TO.C,R90*%
X85500000Y-130425000D03*
X85500000Y-132075000D03*
%TD*%
D15*
%TO.C,D14*%
X285000000Y-185500000D03*
X285000000Y-181500000D03*
%TD*%
D23*
%TO.C,R17*%
X323000000Y-176212500D03*
X323000000Y-173287500D03*
%TD*%
D15*
%TO.C,D5*%
X309500000Y-185500000D03*
X309500000Y-181500000D03*
%TD*%
D20*
%TO.C,C12*%
X339000000Y-175525000D03*
X339000000Y-173975000D03*
%TD*%
D24*
%TO.C,R82*%
X336500000Y-164325000D03*
X336500000Y-162675000D03*
%TD*%
%TO.C,R64*%
X264250000Y-106825000D03*
X264250000Y-105175000D03*
%TD*%
D25*
%TO.C,C19*%
X77725000Y-136000000D03*
X79275000Y-136000000D03*
%TD*%
D14*
%TO.C,C73*%
X267275000Y-148500000D03*
X265725000Y-148500000D03*
%TD*%
D25*
%TO.C,C11*%
X367225000Y-175000000D03*
X368775000Y-175000000D03*
%TD*%
D26*
%TO.C,IC3*%
X304405000Y-164425000D03*
X303135000Y-164425000D03*
X301865000Y-164425000D03*
X300595000Y-164425000D03*
X300595000Y-169575000D03*
X301865000Y-169575000D03*
X303135000Y-169575000D03*
X304405000Y-169575000D03*
%TD*%
D20*
%TO.C,C14*%
X269500000Y-179775000D03*
X269500000Y-178225000D03*
%TD*%
D27*
%TO.C,IC13*%
X322137500Y-165025000D03*
X322137500Y-165675000D03*
X322137500Y-166325000D03*
X322137500Y-166975000D03*
D28*
X323025000Y-167862500D03*
X323675000Y-167862500D03*
X324325000Y-167862500D03*
X324975000Y-167862500D03*
D27*
X325862500Y-166975000D03*
X325862500Y-166325000D03*
X325862500Y-165675000D03*
X325862500Y-165025000D03*
D28*
X324975000Y-164137500D03*
X324325000Y-164137500D03*
X323675000Y-164137500D03*
X323025000Y-164137500D03*
D29*
X324000000Y-166000000D03*
%TD*%
D21*
%TO.C,D28*%
X198750000Y-198787500D03*
X198750000Y-197212500D03*
%TD*%
D30*
%TO.C,J8*%
X260450000Y-194200000D03*
D31*
X261450000Y-192400000D03*
X262500000Y-194200000D03*
X263500000Y-192400000D03*
X264550000Y-194200000D03*
X265550000Y-192400000D03*
D32*
X258150000Y-195150000D03*
D33*
X267750000Y-191700000D03*
X258250000Y-191700000D03*
D32*
X267850000Y-195150000D03*
%TD*%
D11*
%TO.C,R31*%
X79500000Y-137675000D03*
X79500000Y-139325000D03*
%TD*%
D34*
%TO.C,C26*%
X137975000Y-156500000D03*
X135025000Y-156500000D03*
%TD*%
%TO.C,C29*%
X137975000Y-159000000D03*
X135025000Y-159000000D03*
%TD*%
%TO.C,C25*%
X346975000Y-112000000D03*
X344025000Y-112000000D03*
%TD*%
D11*
%TO.C,R36*%
X198750000Y-191175000D03*
X198750000Y-192825000D03*
%TD*%
D34*
%TO.C,C7*%
X330225000Y-180000000D03*
X327275000Y-180000000D03*
%TD*%
D12*
%TO.C,H2*%
X126000000Y-176000000D03*
%TD*%
D14*
%TO.C,C47*%
X55775000Y-127000000D03*
X54225000Y-127000000D03*
%TD*%
D13*
%TO.C,R1*%
X316325000Y-173250000D03*
X314675000Y-173250000D03*
%TD*%
%TO.C,R34*%
X197575000Y-174000000D03*
X195925000Y-174000000D03*
%TD*%
D35*
%TO.C,C55*%
X364525000Y-124000000D03*
X367475000Y-124000000D03*
%TD*%
D17*
%TO.C,IC7*%
X56475000Y-148475000D03*
X56475000Y-158000000D03*
X56475000Y-167525000D03*
X75525000Y-167525000D03*
X75525000Y-148475000D03*
%TD*%
D36*
%TO.C,C72*%
X281750000Y-106225000D03*
X281750000Y-107775000D03*
%TD*%
D11*
%TO.C,R62*%
X286750000Y-139425000D03*
X286750000Y-141075000D03*
%TD*%
D37*
%TO.C,D22*%
X136582000Y-176000000D03*
D38*
X132600000Y-176920000D03*
X132600000Y-175080000D03*
%TD*%
D21*
%TO.C,D25*%
X194250000Y-198787500D03*
X194250000Y-197212500D03*
%TD*%
D24*
%TO.C,R49*%
X77500000Y-125325000D03*
X77500000Y-123675000D03*
%TD*%
%TO.C,R51*%
X55750000Y-130325000D03*
X55750000Y-128675000D03*
%TD*%
%TO.C,R25*%
X358000000Y-165325000D03*
X358000000Y-163675000D03*
%TD*%
D39*
%TO.C,X1*%
X267750000Y-125300000D03*
X267750000Y-121200000D03*
X265250000Y-121200000D03*
X265250000Y-125300000D03*
%TD*%
D34*
%TO.C,C9*%
X321475000Y-180000000D03*
X318525000Y-180000000D03*
%TD*%
D40*
%TO.C,Q8*%
X311000000Y-168775000D03*
X311000000Y-169425000D03*
X311000000Y-170075000D03*
X311000000Y-170725000D03*
D41*
X312955000Y-169750000D03*
%TD*%
D11*
%TO.C,R80*%
X277400000Y-153675000D03*
X277400000Y-155325000D03*
%TD*%
%TO.C,R37*%
X343500000Y-117675000D03*
X343500000Y-119325000D03*
%TD*%
D42*
%TO.C,C6*%
X260450000Y-172500000D03*
X258550000Y-172500000D03*
%TD*%
D35*
%TO.C,C58*%
X155525000Y-168500000D03*
X158475000Y-168500000D03*
%TD*%
D22*
%TO.C,R63*%
X280175000Y-117000000D03*
X281825000Y-117000000D03*
%TD*%
D36*
%TO.C,C64*%
X276750000Y-123475000D03*
X276750000Y-125025000D03*
%TD*%
D43*
%TO.C,C70*%
X273000000Y-123550000D03*
X273000000Y-125450000D03*
%TD*%
D24*
%TO.C,R42*%
X342000000Y-165325000D03*
X342000000Y-163675000D03*
%TD*%
D44*
%TO.C,J9*%
X313830000Y-192119669D03*
X280530000Y-192119669D03*
D45*
X306875000Y-191819669D03*
D46*
X304105000Y-191819669D03*
X301335000Y-191819669D03*
X298565000Y-191819669D03*
X295795000Y-191819669D03*
X293025000Y-191819669D03*
X290255000Y-191819669D03*
X287485000Y-191819669D03*
X305490000Y-194659669D03*
X302720000Y-194659669D03*
X299950000Y-194659669D03*
X297180000Y-194659669D03*
X294410000Y-194659669D03*
X291640000Y-194659669D03*
X288870000Y-194659669D03*
%TD*%
D11*
%TO.C,R76*%
X194250000Y-191175000D03*
X194250000Y-192825000D03*
%TD*%
D24*
%TO.C,R59*%
X275000000Y-125075000D03*
X275000000Y-123425000D03*
%TD*%
D18*
%TO.C,Q2*%
X354050000Y-168937500D03*
X355950000Y-168937500D03*
X355000000Y-167062500D03*
%TD*%
D13*
%TO.C,R61*%
X267825000Y-115500000D03*
X266175000Y-115500000D03*
%TD*%
D11*
%TO.C,R75*%
X192750000Y-191175000D03*
X192750000Y-192825000D03*
%TD*%
D47*
%TO.C,Q7*%
X334450000Y-162812500D03*
X332550000Y-162812500D03*
X333500000Y-164687500D03*
%TD*%
D19*
%TO.C,R28*%
X77037500Y-141500000D03*
X79962500Y-141500000D03*
%TD*%
D48*
%TO.C,C5*%
X269500000Y-176450000D03*
X269500000Y-174550000D03*
%TD*%
D11*
%TO.C,R78*%
X197250000Y-191175000D03*
X197250000Y-192825000D03*
%TD*%
D24*
%TO.C,R54*%
X79500000Y-125325000D03*
X79500000Y-123675000D03*
%TD*%
D11*
%TO.C,R22*%
X280000000Y-171675000D03*
X280000000Y-173325000D03*
%TD*%
D21*
%TO.C,D24*%
X192750000Y-198787500D03*
X192750000Y-197212500D03*
%TD*%
D14*
%TO.C,C30*%
X348275000Y-125500000D03*
X346725000Y-125500000D03*
%TD*%
%TO.C,C36*%
X352775000Y-118000000D03*
X351225000Y-118000000D03*
%TD*%
D11*
%TO.C,R27*%
X77500000Y-137675000D03*
X77500000Y-139325000D03*
%TD*%
D14*
%TO.C,C63*%
X267775000Y-118500000D03*
X266225000Y-118500000D03*
%TD*%
D12*
%TO.C,H1*%
X55000000Y-178000000D03*
%TD*%
D24*
%TO.C,R7*%
X304750000Y-173325000D03*
X304750000Y-171675000D03*
%TD*%
D12*
%TO.C,H8*%
X335000000Y-131500000D03*
%TD*%
D24*
%TO.C,R65*%
X267250000Y-106825000D03*
X267250000Y-105175000D03*
%TD*%
%TO.C,R40*%
X344000000Y-165325000D03*
X344000000Y-163675000D03*
%TD*%
%TO.C,R58*%
X68250000Y-120825000D03*
X68250000Y-119175000D03*
%TD*%
D11*
%TO.C,R43*%
X84750000Y-144925000D03*
X84750000Y-146575000D03*
%TD*%
D36*
%TO.C,C61*%
X265250000Y-127225000D03*
X265250000Y-128775000D03*
%TD*%
D34*
%TO.C,C3*%
X310225000Y-178500000D03*
X307275000Y-178500000D03*
%TD*%
D49*
%TO.C,J115*%
X316610000Y-88752500D03*
D50*
X316610000Y-86212500D03*
X319150000Y-88752500D03*
X319150000Y-86212500D03*
X321690000Y-88752500D03*
X321690000Y-86212500D03*
X324230000Y-88752500D03*
X324230000Y-86212500D03*
X326770000Y-88752500D03*
X326770000Y-86212500D03*
X329310000Y-88752500D03*
X329310000Y-86212500D03*
X331850000Y-88752500D03*
X331850000Y-86212500D03*
X334390000Y-88752500D03*
X334390000Y-86212500D03*
D51*
X307670000Y-87732500D03*
X343330000Y-87732500D03*
%TD*%
D14*
%TO.C,C80*%
X267275000Y-139000000D03*
X265725000Y-139000000D03*
%TD*%
D12*
%TO.C,H10*%
X126000000Y-87000000D03*
%TD*%
D15*
%TO.C,D11*%
X295500000Y-185500000D03*
X295500000Y-181500000D03*
%TD*%
D20*
%TO.C,C41*%
X362500000Y-123775000D03*
X362500000Y-122225000D03*
%TD*%
D52*
%TO.C,IC8*%
X85067500Y-158182500D03*
D53*
X87607500Y-158182500D03*
X90147500Y-158182500D03*
%TD*%
D14*
%TO.C,C31*%
X139275000Y-170000000D03*
X137725000Y-170000000D03*
%TD*%
D36*
%TO.C,C69*%
X271250000Y-123475000D03*
X271250000Y-125025000D03*
%TD*%
D20*
%TO.C,C15*%
X304500000Y-162275000D03*
X304500000Y-160725000D03*
%TD*%
D15*
%TO.C,D13*%
X299000000Y-185500000D03*
X299000000Y-181500000D03*
%TD*%
D35*
%TO.C,C46*%
X155525000Y-176000000D03*
X158475000Y-176000000D03*
%TD*%
D22*
%TO.C,R92*%
X89175000Y-128000000D03*
X90825000Y-128000000D03*
%TD*%
D13*
%TO.C,R50*%
X73325000Y-132000000D03*
X71675000Y-132000000D03*
%TD*%
D35*
%TO.C,C45*%
X364525000Y-136500000D03*
X367475000Y-136500000D03*
%TD*%
D11*
%TO.C,R71*%
X277750000Y-106175000D03*
X277750000Y-107825000D03*
%TD*%
%TO.C,R72*%
X280250000Y-106175000D03*
X280250000Y-107825000D03*
%TD*%
D54*
%TO.C,L1*%
X351498740Y-131500000D03*
X361501260Y-131500000D03*
%TD*%
D13*
%TO.C,R83*%
X336075000Y-166750000D03*
X334425000Y-166750000D03*
%TD*%
D25*
%TO.C,C24*%
X81725000Y-141500000D03*
X83275000Y-141500000D03*
%TD*%
D12*
%TO.C,H6*%
X170500000Y-131500000D03*
%TD*%
D22*
%TO.C,R85*%
X312175000Y-160750000D03*
X313825000Y-160750000D03*
%TD*%
D55*
%TO.C,P1*%
X225016000Y-174460000D03*
X222984000Y-174460000D03*
X224000000Y-179540000D03*
D56*
X224635000Y-178270000D03*
X223365000Y-178270000D03*
X224635000Y-177000000D03*
X223365000Y-177000000D03*
X224635000Y-175730000D03*
X223365000Y-175730000D03*
%TD*%
D57*
%TO.C,IC14*%
X78025000Y-132862500D03*
X78675000Y-132862500D03*
X79325000Y-132862500D03*
X79975000Y-132862500D03*
D58*
X80862500Y-131975000D03*
X80862500Y-131325000D03*
X80862500Y-130675000D03*
X80862500Y-130025000D03*
D57*
X79975000Y-129137500D03*
X79325000Y-129137500D03*
X78675000Y-129137500D03*
X78025000Y-129137500D03*
D58*
X77137500Y-130025000D03*
X77137500Y-130675000D03*
X77137500Y-131325000D03*
X77137500Y-131975000D03*
D29*
X79000000Y-131000000D03*
%TD*%
D35*
%TO.C,C56*%
X155525000Y-171000000D03*
X158475000Y-171000000D03*
%TD*%
D59*
%TO.C,IC12*%
X55055000Y-138075000D03*
X56325000Y-138075000D03*
X57595000Y-138075000D03*
X58865000Y-138075000D03*
X60135000Y-138075000D03*
X61405000Y-138075000D03*
X62675000Y-138075000D03*
X63945000Y-138075000D03*
X63945000Y-132925000D03*
X62675000Y-132925000D03*
X61405000Y-132925000D03*
X60135000Y-132925000D03*
X58865000Y-132925000D03*
X57595000Y-132925000D03*
X56325000Y-132925000D03*
X55055000Y-132925000D03*
%TD*%
D37*
%TO.C,D21*%
X345582000Y-131500000D03*
D38*
X341600000Y-132420000D03*
X341600000Y-130580000D03*
%TD*%
D13*
%TO.C,R19*%
X326825000Y-173250000D03*
X325175000Y-173250000D03*
%TD*%
D18*
%TO.C,Q3*%
X350050000Y-168937500D03*
X351950000Y-168937500D03*
X351000000Y-167062500D03*
%TD*%
D13*
%TO.C,R89*%
X89325000Y-134000000D03*
X87675000Y-134000000D03*
%TD*%
D11*
%TO.C,R47*%
X152000000Y-166675000D03*
X152000000Y-168325000D03*
%TD*%
D12*
%TO.C,H12*%
X295000000Y-87000000D03*
%TD*%
D22*
%TO.C,R21*%
X278425000Y-176250000D03*
X280075000Y-176250000D03*
%TD*%
D13*
%TO.C,R39*%
X200575000Y-174000000D03*
X198925000Y-174000000D03*
%TD*%
D36*
%TO.C,C71*%
X272250000Y-106225000D03*
X272250000Y-107775000D03*
%TD*%
D60*
%TO.C,C21*%
X142000000Y-155000000D03*
X150000000Y-155000000D03*
%TD*%
D25*
%TO.C,C66*%
X308625000Y-106000000D03*
X310175000Y-106000000D03*
%TD*%
D61*
%TO.C,J5*%
X134000000Y-119000000D03*
D62*
X136540000Y-116460000D03*
X131460000Y-121540000D03*
X136540000Y-121540000D03*
X131460000Y-116460000D03*
%TD*%
D35*
%TO.C,C54*%
X155525000Y-173500000D03*
X158475000Y-173500000D03*
%TD*%
D24*
%TO.C,R33*%
X346000000Y-165325000D03*
X346000000Y-163675000D03*
%TD*%
D63*
%TO.C,J111*%
X355282500Y-86450000D03*
D64*
X359242500Y-86450000D03*
X363202500Y-86450000D03*
X367162500Y-86450000D03*
%TD*%
D12*
%TO.C,H9*%
X55000000Y-87000000D03*
%TD*%
D65*
%TO.C,C17*%
X265550000Y-172500000D03*
X267450000Y-172500000D03*
%TD*%
D66*
%TO.C,J6*%
X238080000Y-186960000D03*
D67*
X238080000Y-189500000D03*
X235540000Y-186960000D03*
X235540000Y-189500000D03*
X233000000Y-186960000D03*
X233000000Y-189500000D03*
X230460000Y-186960000D03*
X230460000Y-189500000D03*
X227920000Y-186960000D03*
X227920000Y-189500000D03*
%TD*%
D23*
%TO.C,R53*%
X69500000Y-132462500D03*
X69500000Y-129537500D03*
%TD*%
D68*
%TO.C,IC1*%
X360800000Y-174000000D03*
X360800000Y-174500000D03*
X360800000Y-175000000D03*
X360800000Y-175500000D03*
X360800000Y-176000000D03*
X365200000Y-176000000D03*
X365200000Y-175500000D03*
X365200000Y-175000000D03*
X365200000Y-174500000D03*
X365200000Y-174000000D03*
%TD*%
D20*
%TO.C,C1*%
X318000000Y-175525000D03*
X318000000Y-173975000D03*
%TD*%
D11*
%TO.C,R12*%
X285500000Y-171675000D03*
X285500000Y-173325000D03*
%TD*%
D13*
%TO.C,R2*%
X316325000Y-176250000D03*
X314675000Y-176250000D03*
%TD*%
D15*
%TO.C,D12*%
X302500000Y-185500000D03*
X302500000Y-181500000D03*
%TD*%
%TO.C,D18*%
X341500000Y-185500000D03*
X341500000Y-181500000D03*
%TD*%
D69*
%TO.C,IC9*%
X86450000Y-142650000D03*
X88750000Y-142650000D03*
D70*
X88750000Y-136350000D03*
D69*
X91050000Y-142650000D03*
%TD*%
D22*
%TO.C,R6*%
X285425000Y-176250000D03*
X287075000Y-176250000D03*
%TD*%
D15*
%TO.C,D15*%
X288500000Y-185500000D03*
X288500000Y-181500000D03*
%TD*%
%TO.C,D4*%
X355500000Y-185500000D03*
X355500000Y-181500000D03*
%TD*%
%TO.C,D2*%
X352000000Y-185500000D03*
X352000000Y-181500000D03*
%TD*%
D13*
%TO.C,R55*%
X73325000Y-130000000D03*
X71675000Y-130000000D03*
%TD*%
D65*
%TO.C,C4*%
X262050000Y-172500000D03*
X263950000Y-172500000D03*
%TD*%
D71*
%TO.C,IC2*%
X267445000Y-175025000D03*
X266175000Y-175025000D03*
X264905000Y-175025000D03*
X263635000Y-175025000D03*
X262365000Y-175025000D03*
X261095000Y-175025000D03*
X259825000Y-175025000D03*
X258555000Y-175025000D03*
X258555000Y-179975000D03*
X259825000Y-179975000D03*
X261095000Y-179975000D03*
X262365000Y-179975000D03*
X263635000Y-179975000D03*
X264905000Y-179975000D03*
X266175000Y-179975000D03*
X267445000Y-179975000D03*
%TD*%
D22*
%TO.C,R91*%
X85925000Y-128000000D03*
X87575000Y-128000000D03*
%TD*%
%TO.C,R68*%
X266175000Y-114000000D03*
X267825000Y-114000000D03*
%TD*%
D35*
%TO.C,C57*%
X364525000Y-131500000D03*
X367475000Y-131500000D03*
%TD*%
D20*
%TO.C,C68*%
X273750000Y-111025000D03*
X273750000Y-109475000D03*
%TD*%
D36*
%TO.C,C86*%
X63500000Y-128725000D03*
X63500000Y-130275000D03*
%TD*%
D44*
%TO.C,J10*%
X374955000Y-192119669D03*
X327855000Y-192119669D03*
D45*
X368025000Y-191819669D03*
D46*
X365255000Y-191819669D03*
X362485000Y-191819669D03*
X359715000Y-191819669D03*
X356945000Y-191819669D03*
X354175000Y-191819669D03*
X351405000Y-191819669D03*
X348635000Y-191819669D03*
X345865000Y-191819669D03*
X343095000Y-191819669D03*
X340325000Y-191819669D03*
X337555000Y-191819669D03*
X334785000Y-191819669D03*
X366640000Y-194659669D03*
X363870000Y-194659669D03*
X361100000Y-194659669D03*
X358330000Y-194659669D03*
X355560000Y-194659669D03*
X352790000Y-194659669D03*
X350020000Y-194659669D03*
X347250000Y-194659669D03*
X344480000Y-194659669D03*
X341710000Y-194659669D03*
X338940000Y-194659669D03*
X336170000Y-194659669D03*
%TD*%
D18*
%TO.C,Q1*%
X358050000Y-168937500D03*
X359950000Y-168937500D03*
X359000000Y-167062500D03*
%TD*%
D72*
%TO.C,IC10*%
X349405000Y-117862500D03*
X348135000Y-117862500D03*
X346865000Y-117862500D03*
X345595000Y-117862500D03*
X345595000Y-123137500D03*
X346865000Y-123137500D03*
X348135000Y-123137500D03*
X349405000Y-123137500D03*
D73*
X347500000Y-120500000D03*
%TD*%
D24*
%TO.C,R20*%
X278500000Y-173325000D03*
X278500000Y-171675000D03*
%TD*%
%TO.C,R23*%
X360000000Y-165325000D03*
X360000000Y-163675000D03*
%TD*%
D20*
%TO.C,C16*%
X289500000Y-162275000D03*
X289500000Y-160725000D03*
%TD*%
D35*
%TO.C,C48*%
X364525000Y-126500000D03*
X367475000Y-126500000D03*
%TD*%
D54*
%TO.C,L2*%
X142498740Y-176000000D03*
X152501260Y-176000000D03*
%TD*%
D20*
%TO.C,C79*%
X274000000Y-134275000D03*
X274000000Y-132725000D03*
%TD*%
D24*
%TO.C,R9*%
X301750000Y-173325000D03*
X301750000Y-171675000D03*
%TD*%
D15*
%TO.C,D16*%
X348500000Y-185500000D03*
X348500000Y-181500000D03*
%TD*%
D20*
%TO.C,C78*%
X278000000Y-134275000D03*
X278000000Y-132725000D03*
%TD*%
D74*
%TO.C,C88*%
X67951992Y-125548008D03*
X69048008Y-124451992D03*
%TD*%
D13*
%TO.C,R87*%
X315575000Y-166750000D03*
X313925000Y-166750000D03*
%TD*%
D20*
%TO.C,C18*%
X282500000Y-162275000D03*
X282500000Y-160725000D03*
%TD*%
D75*
%TO.C,J3*%
X253250000Y-106050000D03*
X204250000Y-106050000D03*
X204250000Y-164050000D03*
X253250000Y-164050000D03*
D76*
X205520000Y-159180000D03*
D77*
X202980000Y-159180000D03*
X205520000Y-156640000D03*
X202980000Y-156640000D03*
X205520000Y-154100000D03*
X202980000Y-154100000D03*
X205520000Y-151560000D03*
X202980000Y-151560000D03*
X205520000Y-149020000D03*
X202980000Y-149020000D03*
X205520000Y-146480000D03*
X202980000Y-146480000D03*
X205520000Y-143940000D03*
X202980000Y-143940000D03*
X205520000Y-141400000D03*
X202980000Y-141400000D03*
X205520000Y-138860000D03*
X202980000Y-138860000D03*
X205520000Y-136320000D03*
X202980000Y-136320000D03*
X205520000Y-133780000D03*
X202980000Y-133780000D03*
X205520000Y-131240000D03*
X202980000Y-131240000D03*
X205520000Y-128700000D03*
X202980000Y-128700000D03*
X205520000Y-126160000D03*
X202980000Y-126160000D03*
X205520000Y-123620000D03*
X202980000Y-123620000D03*
X205520000Y-121080000D03*
X202980000Y-121080000D03*
X205520000Y-118540000D03*
X202980000Y-118540000D03*
X205520000Y-116000000D03*
X202980000Y-116000000D03*
X205520000Y-113460000D03*
X202980000Y-113460000D03*
X205520000Y-110920000D03*
X202980000Y-110920000D03*
%TD*%
D13*
%TO.C,R15*%
X326825000Y-176250000D03*
X325175000Y-176250000D03*
%TD*%
D25*
%TO.C,C85*%
X60475000Y-128750000D03*
X62025000Y-128750000D03*
%TD*%
D78*
%TO.C,J7*%
X268285000Y-91030000D03*
X279715000Y-91030000D03*
D79*
X266225000Y-94080000D03*
X281775000Y-94080000D03*
D80*
X267675000Y-87650000D03*
X270215000Y-86130000D03*
X277785000Y-87650000D03*
X280325000Y-86130000D03*
D81*
X278445000Y-97370000D03*
D82*
X277175000Y-99910000D03*
X275905000Y-97370000D03*
X274635000Y-99910000D03*
X273365000Y-97370000D03*
X272095000Y-99910000D03*
X270825000Y-97370000D03*
X269555000Y-99910000D03*
%TD*%
D20*
%TO.C,C44*%
X75000000Y-131775000D03*
X75000000Y-130225000D03*
%TD*%
D83*
%TO.C,IC17*%
X283000000Y-136325000D03*
X282500000Y-136325000D03*
X282000000Y-136325000D03*
X281500000Y-136325000D03*
X281000000Y-136325000D03*
X280500000Y-136325000D03*
X280000000Y-136325000D03*
X279500000Y-136325000D03*
X279000000Y-136325000D03*
X278500000Y-136325000D03*
X278000000Y-136325000D03*
X277500000Y-136325000D03*
X277000000Y-136325000D03*
X276500000Y-136325000D03*
X276000000Y-136325000D03*
X275500000Y-136325000D03*
X275000000Y-136325000D03*
X274500000Y-136325000D03*
X274000000Y-136325000D03*
X273500000Y-136325000D03*
X273000000Y-136325000D03*
X272500000Y-136325000D03*
X272000000Y-136325000D03*
X271500000Y-136325000D03*
X271000000Y-136325000D03*
D84*
X269325000Y-138000000D03*
X269325000Y-138500000D03*
X269325000Y-139000000D03*
X269325000Y-139500000D03*
X269325000Y-140000000D03*
X269325000Y-140500000D03*
X269325000Y-141000000D03*
X269325000Y-141500000D03*
X269325000Y-142000000D03*
X269325000Y-142500000D03*
X269325000Y-143000000D03*
X269325000Y-143500000D03*
X269325000Y-144000000D03*
X269325000Y-144500000D03*
X269325000Y-145000000D03*
X269325000Y-145500000D03*
X269325000Y-146000000D03*
X269325000Y-146500000D03*
X269325000Y-147000000D03*
X269325000Y-147500000D03*
X269325000Y-148000000D03*
X269325000Y-148500000D03*
X269325000Y-149000000D03*
X269325000Y-149500000D03*
X269325000Y-150000000D03*
D83*
X271000000Y-151675000D03*
X271500000Y-151675000D03*
X272000000Y-151675000D03*
X272500000Y-151675000D03*
X273000000Y-151675000D03*
X273500000Y-151675000D03*
X274000000Y-151675000D03*
X274500000Y-151675000D03*
X275000000Y-151675000D03*
X275500000Y-151675000D03*
X276000000Y-151675000D03*
X276500000Y-151675000D03*
X277000000Y-151675000D03*
X277500000Y-151675000D03*
X278000000Y-151675000D03*
X278500000Y-151675000D03*
X279000000Y-151675000D03*
X279500000Y-151675000D03*
X280000000Y-151675000D03*
X280500000Y-151675000D03*
X281000000Y-151675000D03*
X281500000Y-151675000D03*
X282000000Y-151675000D03*
X282500000Y-151675000D03*
X283000000Y-151675000D03*
D84*
X284675000Y-150000000D03*
X284675000Y-149500000D03*
X284675000Y-149000000D03*
X284675000Y-148500000D03*
X284675000Y-148000000D03*
X284675000Y-147500000D03*
X284675000Y-147000000D03*
X284675000Y-146500000D03*
X284675000Y-146000000D03*
X284675000Y-145500000D03*
X284675000Y-145000000D03*
X284675000Y-144500000D03*
X284675000Y-144000000D03*
X284675000Y-143500000D03*
X284675000Y-143000000D03*
X284675000Y-142500000D03*
X284675000Y-142000000D03*
X284675000Y-141500000D03*
X284675000Y-141000000D03*
X284675000Y-140500000D03*
X284675000Y-140000000D03*
X284675000Y-139500000D03*
X284675000Y-139000000D03*
X284675000Y-138500000D03*
X284675000Y-138000000D03*
%TD*%
D15*
%TO.C,D19*%
X338000000Y-185500000D03*
X338000000Y-181500000D03*
%TD*%
D12*
%TO.C,H7*%
X255000000Y-131500000D03*
%TD*%
D11*
%TO.C,R77*%
X195750000Y-191175000D03*
X195750000Y-192825000D03*
%TD*%
D34*
%TO.C,C2*%
X310225000Y-176000000D03*
X307275000Y-176000000D03*
%TD*%
D36*
%TO.C,C74*%
X281500000Y-153725000D03*
X281500000Y-155275000D03*
%TD*%
D12*
%TO.C,H13*%
X375000000Y-87000000D03*
%TD*%
D35*
%TO.C,C39*%
X87525000Y-121500000D03*
X90475000Y-121500000D03*
%TD*%
D11*
%TO.C,R45*%
X361000000Y-122175000D03*
X361000000Y-123825000D03*
%TD*%
D13*
%TO.C,R18*%
X337325000Y-173250000D03*
X335675000Y-173250000D03*
%TD*%
D85*
%TO.C,C33*%
X91250000Y-145025000D03*
X91250000Y-147975000D03*
%TD*%
D11*
%TO.C,R35*%
X340500000Y-117675000D03*
X340500000Y-119325000D03*
%TD*%
D13*
%TO.C,R88*%
X312400000Y-166750000D03*
X310750000Y-166750000D03*
%TD*%
D15*
%TO.C,D3*%
X306000000Y-185500000D03*
X306000000Y-181500000D03*
%TD*%
D20*
%TO.C,C65*%
X272250000Y-111025000D03*
X272250000Y-109475000D03*
%TD*%
D15*
%TO.C,D10*%
X362500000Y-185500000D03*
X362500000Y-181500000D03*
%TD*%
D11*
%TO.C,R70*%
X276250000Y-106175000D03*
X276250000Y-107825000D03*
%TD*%
D24*
%TO.C,R11*%
X287000000Y-173325000D03*
X287000000Y-171675000D03*
%TD*%
D11*
%TO.C,R38*%
X134500000Y-162175000D03*
X134500000Y-163825000D03*
%TD*%
D18*
%TO.C,Q11*%
X87550000Y-131937500D03*
X89450000Y-131937500D03*
X88500000Y-130062500D03*
%TD*%
D12*
%TO.C,H3*%
X215000000Y-176000000D03*
%TD*%
D11*
%TO.C,R74*%
X191250000Y-191175000D03*
X191250000Y-192825000D03*
%TD*%
D35*
%TO.C,C49*%
X155525000Y-178500000D03*
X158475000Y-178500000D03*
%TD*%
D25*
%TO.C,C43*%
X77725000Y-127000000D03*
X79275000Y-127000000D03*
%TD*%
%TO.C,C87*%
X64975000Y-128750000D03*
X66525000Y-128750000D03*
%TD*%
D15*
%TO.C,D1*%
X315000000Y-185500000D03*
X315000000Y-181500000D03*
%TD*%
D86*
%TO.C,L3*%
X60462500Y-127000000D03*
X62037500Y-127000000D03*
%TD*%
D40*
%TO.C,Q6*%
X331500000Y-168775000D03*
X331500000Y-169425000D03*
X331500000Y-170075000D03*
X331500000Y-170725000D03*
D41*
X333455000Y-169750000D03*
%TD*%
D61*
%TO.C,J4*%
X60000000Y-119000000D03*
D62*
X57460000Y-116460000D03*
X62540000Y-121540000D03*
X62540000Y-116460000D03*
X57460000Y-121540000D03*
%TD*%
D15*
%TO.C,D7*%
X369500000Y-185500000D03*
X369500000Y-181500000D03*
%TD*%
D20*
%TO.C,C77*%
X272500000Y-134275000D03*
X272500000Y-132725000D03*
%TD*%
D26*
%TO.C,IC5*%
X282405000Y-164425000D03*
X281135000Y-164425000D03*
X279865000Y-164425000D03*
X278595000Y-164425000D03*
X278595000Y-169575000D03*
X279865000Y-169575000D03*
X281135000Y-169575000D03*
X282405000Y-169575000D03*
%TD*%
D24*
%TO.C,R46*%
X359500000Y-123825000D03*
X359500000Y-122175000D03*
%TD*%
D25*
%TO.C,C83*%
X286725000Y-138000000D03*
X288275000Y-138000000D03*
%TD*%
D23*
%TO.C,R3*%
X312500000Y-176212500D03*
X312500000Y-173287500D03*
%TD*%
D15*
%TO.C,D17*%
X345000000Y-185500000D03*
X345000000Y-181500000D03*
%TD*%
D36*
%TO.C,C50*%
X81000000Y-134475000D03*
X81000000Y-136025000D03*
%TD*%
D85*
%TO.C,C34*%
X88750000Y-145025000D03*
X88750000Y-147975000D03*
%TD*%
D34*
%TO.C,C10*%
X321475000Y-184000000D03*
X318525000Y-184000000D03*
%TD*%
D87*
%TO.C,IC6*%
X202850000Y-173700000D03*
X202850000Y-176000000D03*
D88*
X209150000Y-176000000D03*
D87*
X202850000Y-178300000D03*
%TD*%
D24*
%TO.C,R30*%
X348000000Y-165325000D03*
X348000000Y-163675000D03*
%TD*%
D11*
%TO.C,R79*%
X280000000Y-153675000D03*
X280000000Y-155325000D03*
%TD*%
D47*
%TO.C,Q9*%
X313950000Y-162812500D03*
X312050000Y-162812500D03*
X313000000Y-164687500D03*
%TD*%
D13*
%TO.C,R67*%
X267825000Y-111000000D03*
X266175000Y-111000000D03*
%TD*%
D34*
%TO.C,C23*%
X137975000Y-154000000D03*
X135025000Y-154000000D03*
%TD*%
D24*
%TO.C,R41*%
X56500000Y-142325000D03*
X56500000Y-140675000D03*
%TD*%
D15*
%TO.C,D20*%
X334500000Y-185500000D03*
X334500000Y-181500000D03*
%TD*%
D34*
%TO.C,C22*%
X346975000Y-109500000D03*
X344025000Y-109500000D03*
%TD*%
D24*
%TO.C,R29*%
X352000000Y-165325000D03*
X352000000Y-163675000D03*
%TD*%
D60*
%TO.C,C20*%
X351000000Y-110500000D03*
X359000000Y-110500000D03*
%TD*%
D12*
%TO.C,H4*%
X295000000Y-176000000D03*
%TD*%
D60*
%TO.C,C59*%
X358500000Y-144000000D03*
X366500000Y-144000000D03*
%TD*%
D14*
%TO.C,C37*%
X143775000Y-162500000D03*
X142225000Y-162500000D03*
%TD*%
D22*
%TO.C,R56*%
X57425000Y-127000000D03*
X59075000Y-127000000D03*
%TD*%
D12*
%TO.C,H11*%
X215000000Y-87000000D03*
%TD*%
D89*
%TO.C,IC16*%
X278162500Y-120000000D03*
X278162500Y-119500000D03*
X278162500Y-119000000D03*
X278162500Y-118500000D03*
X278162500Y-118000000D03*
X278162500Y-117500000D03*
X278162500Y-117000000D03*
X278162500Y-116500000D03*
X278162500Y-116000000D03*
X278162500Y-115500000D03*
X278162500Y-115000000D03*
X278162500Y-114500000D03*
D90*
X276750000Y-113087500D03*
X276250000Y-113087500D03*
X275750000Y-113087500D03*
X275250000Y-113087500D03*
X274750000Y-113087500D03*
X274250000Y-113087500D03*
X273750000Y-113087500D03*
X273250000Y-113087500D03*
X272750000Y-113087500D03*
X272250000Y-113087500D03*
X271750000Y-113087500D03*
X271250000Y-113087500D03*
D89*
X269837500Y-114500000D03*
X269837500Y-115000000D03*
X269837500Y-115500000D03*
X269837500Y-116000000D03*
X269837500Y-116500000D03*
X269837500Y-117000000D03*
X269837500Y-117500000D03*
X269837500Y-118000000D03*
X269837500Y-118500000D03*
X269837500Y-119000000D03*
X269837500Y-119500000D03*
X269837500Y-120000000D03*
D90*
X271250000Y-121412500D03*
X271750000Y-121412500D03*
X272250000Y-121412500D03*
X272750000Y-121412500D03*
X273250000Y-121412500D03*
X273750000Y-121412500D03*
X274250000Y-121412500D03*
X274750000Y-121412500D03*
X275250000Y-121412500D03*
X275750000Y-121412500D03*
X276250000Y-121412500D03*
X276750000Y-121412500D03*
%TD*%
D24*
%TO.C,R24*%
X356000000Y-165325000D03*
X356000000Y-163675000D03*
%TD*%
D86*
%TO.C,L4*%
X64962500Y-127000000D03*
X66537500Y-127000000D03*
%TD*%
D36*
%TO.C,C84*%
X59000000Y-128725000D03*
X59000000Y-130275000D03*
%TD*%
D11*
%TO.C,R69*%
X273750000Y-106175000D03*
X273750000Y-107825000D03*
%TD*%
D40*
%TO.C,Q10*%
X90500000Y-125975000D03*
X90500000Y-125325000D03*
X90500000Y-124675000D03*
X90500000Y-124025000D03*
D91*
X88545000Y-125000000D03*
%TD*%
D34*
%TO.C,C32*%
X200475000Y-176000000D03*
X197525000Y-176000000D03*
%TD*%
D11*
%TO.C,R8*%
X303250000Y-171675000D03*
X303250000Y-173325000D03*
%TD*%
D21*
%TO.C,D23*%
X191250000Y-198787500D03*
X191250000Y-197212500D03*
%TD*%
D60*
%TO.C,C60*%
X149500000Y-188500000D03*
X157500000Y-188500000D03*
%TD*%
D13*
%TO.C,R5*%
X304825000Y-176250000D03*
X303175000Y-176250000D03*
%TD*%
%TO.C,R4*%
X267325000Y-137500000D03*
X265675000Y-137500000D03*
%TD*%
D20*
%TO.C,C13*%
X328500000Y-175525000D03*
X328500000Y-173975000D03*
%TD*%
D34*
%TO.C,C27*%
X200475000Y-178500000D03*
X197525000Y-178500000D03*
%TD*%
D14*
%TO.C,C38*%
X53275000Y-132750000D03*
X51725000Y-132750000D03*
%TD*%
D34*
%TO.C,C28*%
X346975000Y-114500000D03*
X344025000Y-114500000D03*
%TD*%
D35*
%TO.C,C51*%
X364525000Y-129000000D03*
X367475000Y-129000000D03*
%TD*%
D24*
%TO.C,R48*%
X150500000Y-168325000D03*
X150500000Y-166675000D03*
%TD*%
%TO.C,R57*%
X66750000Y-120825000D03*
X66750000Y-119175000D03*
%TD*%
D11*
%TO.C,R13*%
X300250000Y-171675000D03*
X300250000Y-173325000D03*
%TD*%
D23*
%TO.C,R16*%
X333500000Y-176212500D03*
X333500000Y-173287500D03*
%TD*%
D26*
%TO.C,IC4*%
X289405000Y-164425000D03*
X288135000Y-164425000D03*
X286865000Y-164425000D03*
X285595000Y-164425000D03*
X285595000Y-169575000D03*
X286865000Y-169575000D03*
X288135000Y-169575000D03*
X289405000Y-169575000D03*
%TD*%
D21*
%TO.C,D26*%
X195750000Y-198787500D03*
X195750000Y-197212500D03*
%TD*%
D14*
%TO.C,C67*%
X270775000Y-111000000D03*
X269225000Y-111000000D03*
%TD*%
D15*
%TO.C,D6*%
X366000000Y-185500000D03*
X366000000Y-181500000D03*
%TD*%
D24*
%TO.C,R32*%
X350000000Y-165325000D03*
X350000000Y-163675000D03*
%TD*%
D14*
%TO.C,C81*%
X267275000Y-150000000D03*
X265725000Y-150000000D03*
%TD*%
D36*
%TO.C,C82*%
X283000000Y-153725000D03*
X283000000Y-155275000D03*
%TD*%
D35*
%TO.C,C40*%
X87525000Y-119000000D03*
X90475000Y-119000000D03*
%TD*%
D72*
%TO.C,IC11*%
X140405000Y-162362500D03*
X139135000Y-162362500D03*
X137865000Y-162362500D03*
X136595000Y-162362500D03*
X136595000Y-167637500D03*
X137865000Y-167637500D03*
X139135000Y-167637500D03*
X140405000Y-167637500D03*
D73*
X138500000Y-165000000D03*
%TD*%
D24*
%TO.C,R26*%
X354000000Y-165325000D03*
X354000000Y-163675000D03*
%TD*%
D22*
%TO.C,R60*%
X266175000Y-117000000D03*
X267825000Y-117000000D03*
%TD*%
D15*
%TO.C,D9*%
X292000000Y-185500000D03*
X292000000Y-181500000D03*
%TD*%
D35*
%TO.C,C52*%
X155525000Y-181000000D03*
X158475000Y-181000000D03*
%TD*%
D16*
%TO.C,J2*%
X74500000Y-85500000D03*
X119500000Y-85500000D03*
X119500000Y-110500000D03*
X74500000Y-110500000D03*
D17*
X85500000Y-74000000D03*
X81000000Y-74000000D03*
%TD*%
D13*
%TO.C,R14*%
X337325000Y-176250000D03*
X335675000Y-176250000D03*
%TD*%
D34*
%TO.C,C8*%
X330225000Y-184000000D03*
X327275000Y-184000000D03*
%TD*%
D24*
%TO.C,R86*%
X316000000Y-164325000D03*
X316000000Y-162675000D03*
%TD*%
%TO.C,R44*%
X86500000Y-146575000D03*
X86500000Y-144925000D03*
%TD*%
D35*
%TO.C,C53*%
X364525000Y-134000000D03*
X367475000Y-134000000D03*
%TD*%
D92*
%TO.C,IC15*%
X306500000Y-102000000D03*
X306500000Y-102400000D03*
X306500000Y-102800000D03*
X306500000Y-103200000D03*
X306500000Y-103600000D03*
X306500000Y-104000000D03*
D93*
X307000000Y-104500000D03*
X307400000Y-104500000D03*
X307800000Y-104500000D03*
X308200000Y-104500000D03*
X308600000Y-104500000D03*
X309000000Y-104500000D03*
D92*
X309500000Y-104000000D03*
X309500000Y-103600000D03*
X309500000Y-103200000D03*
X309500000Y-102800000D03*
X309500000Y-102400000D03*
X309500000Y-102000000D03*
D93*
X309000000Y-101500000D03*
X308600000Y-101500000D03*
X308200000Y-101500000D03*
X307800000Y-101500000D03*
X307400000Y-101500000D03*
X307000000Y-101500000D03*
%TD*%
D22*
%TO.C,R81*%
X332675000Y-160750000D03*
X334325000Y-160750000D03*
%TD*%
M02*
