%TF.GenerationSoftware,KiCad,Pcbnew,6.0.2+dfsg-1*%
%TF.CreationDate,2024-06-08T22:33:11+02:00*%
%TF.ProjectId,seatel,73656174-656c-42e6-9b69-6361645f7063,rev?*%
%TF.SameCoordinates,Original*%
%TF.FileFunction,Soldermask,Bot*%
%TF.FilePolarity,Negative*%
%FSLAX46Y46*%
G04 Gerber Fmt 4.6, Leading zero omitted, Abs format (unit mm)*
G04 Created by KiCad (PCBNEW 6.0.2+dfsg-1) date 2024-06-08 22:33:11*
%MOMM*%
%LPD*%
G01*
G04 APERTURE LIST*
G04 Aperture macros list*
%AMRoundRect*
0 Rectangle with rounded corners*
0 $1 Rounding radius*
0 $2 $3 $4 $5 $6 $7 $8 $9 X,Y pos of 4 corners*
0 Add a 4 corners polygon primitive as box body*
4,1,4,$2,$3,$4,$5,$6,$7,$8,$9,$2,$3,0*
0 Add four circle primitives for the rounded corners*
1,1,$1+$1,$2,$3*
1,1,$1+$1,$4,$5*
1,1,$1+$1,$6,$7*
1,1,$1+$1,$8,$9*
0 Add four rect primitives between the rounded corners*
20,1,$1+$1,$2,$3,$4,$5,0*
20,1,$1+$1,$4,$5,$6,$7,0*
20,1,$1+$1,$6,$7,$8,$9,0*
20,1,$1+$1,$8,$9,$2,$3,0*%
G04 Aperture macros list end*
%ADD10R,1.700000X1.700000*%
%ADD11O,1.700000X1.700000*%
%ADD12C,7.000000*%
%ADD13C,3.000000*%
%ADD14C,2.000000*%
%ADD15C,2.500000*%
%ADD16C,2.200000*%
%ADD17O,2.200000X3.600000*%
%ADD18C,1.500000*%
%ADD19R,1.500000X1.500000*%
%ADD20C,4.000000*%
%ADD21R,1.600000X1.600000*%
%ADD22C,1.600000*%
%ADD23RoundRect,0.250000X0.600000X-0.600000X0.600000X0.600000X-0.600000X0.600000X-0.600000X-0.600000X0*%
%ADD24C,1.700000*%
%ADD25C,8.000000*%
%ADD26R,1.500000X2.500000*%
%ADD27O,1.500000X2.500000*%
%ADD28C,0.990600*%
%ADD29C,2.050000*%
%ADD30C,2.250000*%
%ADD31RoundRect,0.250001X-1.099999X-1.099999X1.099999X-1.099999X1.099999X1.099999X-1.099999X1.099999X0*%
%ADD32C,2.700000*%
%ADD33C,2.750000*%
%ADD34R,1.750000X1.750000*%
%ADD35C,1.750000*%
%ADD36C,3.250000*%
%ADD37C,2.600000*%
%ADD38C,1.890000*%
%ADD39R,1.900000X1.900000*%
%ADD40C,1.900000*%
%ADD41RoundRect,0.225000X0.250000X-0.225000X0.250000X0.225000X-0.250000X0.225000X-0.250000X-0.225000X0*%
%ADD42RoundRect,0.225000X0.225000X0.250000X-0.225000X0.250000X-0.225000X-0.250000X0.225000X-0.250000X0*%
G04 APERTURE END LIST*
D10*
%TO.C,J6*%
X238675000Y-186950000D03*
D11*
X238675000Y-189490000D03*
X236135000Y-186950000D03*
X236135000Y-189490000D03*
X233595000Y-186950000D03*
X233595000Y-189490000D03*
X231055000Y-186950000D03*
X231055000Y-189490000D03*
X228515000Y-186950000D03*
X228515000Y-189490000D03*
%TD*%
D12*
%TO.C,H5*%
X375000000Y-176000000D03*
%TD*%
D13*
%TO.C,J1*%
X148500000Y-110500000D03*
X148500000Y-85500000D03*
X193500000Y-85500000D03*
X193500000Y-110500000D03*
D14*
X159500000Y-74000000D03*
X155000000Y-74000000D03*
%TD*%
D15*
%TO.C,FID4*%
X190000000Y-105000000D03*
%TD*%
D16*
%TO.C,J8*%
X268450000Y-195150000D03*
D17*
X258850000Y-191700000D03*
X268350000Y-191700000D03*
D16*
X258750000Y-195150000D03*
D18*
X266150000Y-192400000D03*
X265150000Y-194200000D03*
X264100000Y-192400000D03*
X263100000Y-194200000D03*
X262050000Y-192400000D03*
D19*
X261050000Y-194200000D03*
%TD*%
D12*
%TO.C,H2*%
X126000000Y-176000000D03*
%TD*%
D14*
%TO.C,IC7*%
X56475000Y-148475000D03*
X56475000Y-158000000D03*
X56475000Y-167525000D03*
X75525000Y-167525000D03*
X75525000Y-148475000D03*
%TD*%
D20*
%TO.C,J9*%
X313830000Y-190439669D03*
X280530000Y-190439669D03*
D21*
X306875000Y-189019669D03*
D22*
X304105000Y-189019669D03*
X301335000Y-189019669D03*
X298565000Y-189019669D03*
X295795000Y-189019669D03*
X293025000Y-189019669D03*
X290255000Y-189019669D03*
X287485000Y-189019669D03*
X305490000Y-191859669D03*
X302720000Y-191859669D03*
X299950000Y-191859669D03*
X297180000Y-191859669D03*
X294410000Y-191859669D03*
X291640000Y-191859669D03*
X288870000Y-191859669D03*
%TD*%
D15*
%TO.C,FID3*%
X370000000Y-105000000D03*
%TD*%
D12*
%TO.C,H1*%
X55000000Y-176000000D03*
%TD*%
%TO.C,H8*%
X335000000Y-131500000D03*
%TD*%
D23*
%TO.C,J115*%
X316610000Y-88752500D03*
D24*
X316610000Y-86212500D03*
X319150000Y-88752500D03*
X319150000Y-86212500D03*
X321690000Y-88752500D03*
X321690000Y-86212500D03*
X324230000Y-88752500D03*
X324230000Y-86212500D03*
X326770000Y-88752500D03*
X326770000Y-86212500D03*
X329310000Y-88752500D03*
X329310000Y-86212500D03*
X331850000Y-88752500D03*
X331850000Y-86212500D03*
X334390000Y-88752500D03*
X334390000Y-86212500D03*
D25*
X307670000Y-87732500D03*
X343330000Y-87732500D03*
%TD*%
D12*
%TO.C,H10*%
X126000000Y-87000000D03*
%TD*%
D26*
%TO.C,IC8*%
X85067500Y-158182500D03*
D27*
X87607500Y-158182500D03*
X90147500Y-158182500D03*
%TD*%
D12*
%TO.C,H6*%
X170500000Y-131500000D03*
%TD*%
D28*
%TO.C,P1*%
X225016000Y-174460000D03*
X222984000Y-174460000D03*
X224000000Y-179540000D03*
%TD*%
D12*
%TO.C,H12*%
X295000000Y-87000000D03*
%TD*%
D29*
%TO.C,J5*%
X134000000Y-119000000D03*
D30*
X136540000Y-116460000D03*
X131460000Y-121540000D03*
X136540000Y-121540000D03*
X131460000Y-116460000D03*
%TD*%
D15*
%TO.C,FID1*%
X370000000Y-155000000D03*
%TD*%
D31*
%TO.C,J111*%
X355282500Y-86450000D03*
D32*
X359242500Y-86450000D03*
X363202500Y-86450000D03*
X367162500Y-86450000D03*
%TD*%
D12*
%TO.C,H9*%
X55000000Y-87000000D03*
%TD*%
D15*
%TO.C,FID2*%
X190000000Y-155000000D03*
%TD*%
D20*
%TO.C,J10*%
X374955000Y-190439669D03*
X327855000Y-190439669D03*
D21*
X368025000Y-189019669D03*
D22*
X365255000Y-189019669D03*
X362485000Y-189019669D03*
X359715000Y-189019669D03*
X356945000Y-189019669D03*
X354175000Y-189019669D03*
X351405000Y-189019669D03*
X348635000Y-189019669D03*
X345865000Y-189019669D03*
X343095000Y-189019669D03*
X340325000Y-189019669D03*
X337555000Y-189019669D03*
X334785000Y-189019669D03*
X366640000Y-191859669D03*
X363870000Y-191859669D03*
X361100000Y-191859669D03*
X358330000Y-191859669D03*
X355560000Y-191859669D03*
X352790000Y-191859669D03*
X350020000Y-191859669D03*
X347250000Y-191859669D03*
X344480000Y-191859669D03*
X341710000Y-191859669D03*
X338940000Y-191859669D03*
X336170000Y-191859669D03*
%TD*%
D33*
%TO.C,J3*%
X253250000Y-106050000D03*
X204250000Y-106050000D03*
X204250000Y-164050000D03*
X253250000Y-164050000D03*
D34*
X205520000Y-159180000D03*
D35*
X202980000Y-159180000D03*
X205520000Y-156640000D03*
X202980000Y-156640000D03*
X205520000Y-154100000D03*
X202980000Y-154100000D03*
X205520000Y-151560000D03*
X202980000Y-151560000D03*
X205520000Y-149020000D03*
X202980000Y-149020000D03*
X205520000Y-146480000D03*
X202980000Y-146480000D03*
X205520000Y-143940000D03*
X202980000Y-143940000D03*
X205520000Y-141400000D03*
X202980000Y-141400000D03*
X205520000Y-138860000D03*
X202980000Y-138860000D03*
X205520000Y-136320000D03*
X202980000Y-136320000D03*
X205520000Y-133780000D03*
X202980000Y-133780000D03*
X205520000Y-131240000D03*
X202980000Y-131240000D03*
X205520000Y-128700000D03*
X202980000Y-128700000D03*
X205520000Y-126160000D03*
X202980000Y-126160000D03*
X205520000Y-123620000D03*
X202980000Y-123620000D03*
X205520000Y-121080000D03*
X202980000Y-121080000D03*
X205520000Y-118540000D03*
X202980000Y-118540000D03*
X205520000Y-116000000D03*
X202980000Y-116000000D03*
X205520000Y-113460000D03*
X202980000Y-113460000D03*
X205520000Y-110920000D03*
X202980000Y-110920000D03*
%TD*%
D36*
%TO.C,J7*%
X268285000Y-91030000D03*
X279715000Y-91030000D03*
D37*
X266225000Y-94080000D03*
X281775000Y-94080000D03*
D38*
X267675000Y-87650000D03*
X270215000Y-86130000D03*
X277785000Y-87650000D03*
X280325000Y-86130000D03*
D39*
X278445000Y-97370000D03*
D40*
X277175000Y-99910000D03*
X275905000Y-97370000D03*
X274635000Y-99910000D03*
X273365000Y-97370000D03*
X272095000Y-99910000D03*
X270825000Y-97370000D03*
X269555000Y-99910000D03*
%TD*%
D15*
%TO.C,FID5*%
X70000000Y-105000000D03*
%TD*%
D12*
%TO.C,H7*%
X255000000Y-131500000D03*
%TD*%
%TO.C,H13*%
X375000000Y-87000000D03*
%TD*%
%TO.C,H3*%
X215000000Y-176000000D03*
%TD*%
D29*
%TO.C,J4*%
X60000000Y-119000000D03*
D30*
X57460000Y-116460000D03*
X62540000Y-121540000D03*
X62540000Y-116460000D03*
X57460000Y-121540000D03*
%TD*%
D12*
%TO.C,H4*%
X295000000Y-176000000D03*
%TD*%
%TO.C,H11*%
X215000000Y-87000000D03*
%TD*%
D15*
%TO.C,FID6*%
X70000000Y-155000000D03*
%TD*%
D13*
%TO.C,J2*%
X74500000Y-85500000D03*
X119500000Y-85500000D03*
X119500000Y-110500000D03*
X74500000Y-110500000D03*
D14*
X85500000Y-74000000D03*
X81000000Y-74000000D03*
%TD*%
D41*
%TO.C,C76*%
X273500000Y-95275000D03*
X273500000Y-93725000D03*
%TD*%
D42*
%TO.C,C75*%
X274525000Y-102000000D03*
X272975000Y-102000000D03*
%TD*%
M02*
