M48
; DRILL file {KiCad 6.0.2+dfsg-1} date Sat 08 Jun 2024 10:33:13 PM CEST
; FORMAT={-:-/ absolute / inch / decimal}
; #@! TF.CreationDate,2024-06-08T22:33:13+02:00
; #@! TF.GenerationSoftware,Kicad,Pcbnew,6.0.2+dfsg-1
; #@! TF.FileFunction,Plated,1,2,PTH
FMAT,2
INCH
; #@! TA.AperFunction,Plated,PTH,ComponentDrill
T1C0.0079
; #@! TA.AperFunction,Plated,PTH,ViaDrill
T2C0.0118
; #@! TA.AperFunction,Plated,PTH,ViaDrill
T3C0.0197
; #@! TA.AperFunction,Plated,PTH,ViaDrill
T4C0.0236
; #@! TA.AperFunction,Plated,PTH,ComponentDrill
T5C0.0350
; #@! TA.AperFunction,Plated,PTH,ComponentDrill
T6C0.0354
; #@! TA.AperFunction,Plated,PTH,ViaDrill
T7C0.0394
; #@! TA.AperFunction,Plated,PTH,ComponentDrill
T8C0.0394
; #@! TA.AperFunction,Plated,PTH,ComponentDrill
T9C0.0400
; #@! TA.AperFunction,Plated,PTH,ComponentDrill
T10C0.0472
; #@! TA.AperFunction,Plated,PTH,ComponentDrill
T11C0.0512
; #@! TA.AperFunction,Plated,PTH,ComponentDrill
T12C0.0591
; #@! TA.AperFunction,Plated,PTH,ComponentDrill
T13C0.0630
; #@! TA.AperFunction,Plated,PTH,ComponentDrill
T14C0.0669
; #@! TA.AperFunction,Plated,PTH,ComponentDrill
T15C0.1059
; #@! TA.AperFunction,Plated,PTH,ComponentDrill
T16C0.1260
; #@! TA.AperFunction,Plated,PTH,ComponentDrill
T17C0.1378
%
G90
G05
T1
X5.4134Y-6.4685
X5.4134Y-6.5236
X5.4528Y-6.4685
X5.4528Y-6.5236
X5.4921Y-6.4685
X5.4921Y-6.5236
X13.6417Y-4.7165
X13.6417Y-4.7717
X13.6811Y-4.7165
X13.6811Y-4.7717
X13.7205Y-4.7165
X13.7205Y-4.7717
T2
X2.1457Y-5.0197
X2.2165Y-5.374
X2.2638Y-4.8917
X2.2677Y-5.2913
X2.4803Y-4.8917
X2.4803Y-5.7638
X2.4803Y-6.2992
X2.5039Y-5.7087
X2.5197Y-5.502
X2.5276Y-5.7638
X2.5276Y-6.2992
X2.5669Y-5.2205
X2.5669Y-5.2677
X2.5669Y-5.315
X2.7559Y-5.2677
X2.7559Y-5.315
X2.8504Y-5.3071
X2.8504Y-5.3622
X2.8661Y-5.252
X2.8976Y-5.3071
X2.8976Y-5.3622
X2.9558Y-4.9951
X2.9606Y-5.2362
X2.9921Y-5.0315
X3.0315Y-5.2461
X3.0394Y-5.0787
X3.0906Y-5.1378
X3.0906Y-5.1772
X3.1299Y-5.1378
X3.1299Y-5.1772
X3.1299Y-5.2854
X3.189Y-5.2461
X3.189Y-5.4035
X3.2382Y-4.9449
X3.2382Y-4.9921
X3.2382Y-5.0394
X3.2382Y-5.0866
X3.2382Y-5.1378
X3.2382Y-5.1772
X3.3268Y-5.6496
X3.3366Y-5.8169
X3.3543Y-4.9449
X3.3543Y-4.9921
X3.3701Y-5.0866
X3.3858Y-4.8819
X3.4941Y-5.8858
X3.5276Y-5.0866
X3.563Y-5.1969
X3.5925Y-5.8858
X3.6063Y-5.1102
X3.6122Y-4.685
X3.6122Y-4.7835
X3.6122Y-4.8819
X3.6929Y-4.9449
X3.6929Y-4.9921
X3.6929Y-5.0394
X3.6929Y-5.0866
X4.0866Y-4.9449
X4.0866Y-4.9921
X4.0866Y-5.0394
X4.0866Y-5.0866
X4.4803Y-4.9449
X4.4803Y-4.9921
X4.4803Y-5.0394
X4.4803Y-5.0866
X4.874Y-4.9449
X4.874Y-4.9921
X4.874Y-5.0394
X4.874Y-5.0866
X5.1772Y-6.8307
X5.1772Y-7.0276
X5.2165Y-6.8307
X5.2165Y-7.0276
X5.2559Y-6.8307
X5.2559Y-7.0276
X5.2657Y-6.1614
X5.2657Y-6.2598
X5.2677Y-4.9449
X5.2677Y-4.9921
X5.2677Y-5.0394
X5.2677Y-5.0866
X5.2953Y-6.4961
X5.374Y-6.6732
X5.4488Y-4.9449
X5.4961Y-4.9921
X5.5354Y-5.0315
X5.5748Y-5.0709
X5.5807Y-6.6043
X5.7087Y-6.3976
X5.7323Y-4.6772
X5.7717Y-4.7165
X5.811Y-4.7559
X5.8504Y-4.7953
X5.8563Y-6.565
X5.8563Y-6.624
X6.0079Y-4.4016
X6.0138Y-6.0709
X6.0138Y-6.1024
X6.0138Y-6.1339
X6.0472Y-4.4409
X6.0866Y-4.4803
X6.126Y-4.5197
X6.248Y-7.126
X6.2835Y-4.126
X6.2894Y-6.7323
X6.2894Y-6.8307
X6.2894Y-6.9291
X6.2894Y-7.0276
X6.3091Y-7.3898
X6.3091Y-7.4213
X6.3091Y-7.4528
X6.3228Y-4.1654
X6.3622Y-4.2047
X6.4016Y-4.2441
X6.5591Y-3.8504
X6.5984Y-3.8898
X6.6378Y-3.9291
X6.6772Y-3.9685
X6.9921Y-3.7402
X6.9921Y-3.7874
X6.9921Y-3.8346
X6.9921Y-3.8819
X7.3858Y-3.7402
X7.3858Y-3.7874
X7.3858Y-3.8346
X7.3858Y-3.8819
X7.502Y-7.8268
X7.7264Y-7.0276
X7.7795Y-3.7402
X7.7795Y-3.7874
X7.7795Y-3.8346
X7.7795Y-3.8819
X7.7795Y-3.9764
X7.7795Y-4.0315
X7.7795Y-4.0866
X7.7795Y-4.1417
X7.7795Y-4.1969
X7.7795Y-4.252
X7.7795Y-4.3071
X7.7795Y-4.3622
X7.7795Y-4.4173
X7.7795Y-4.4724
X7.7795Y-4.5276
X7.7795Y-4.5827
X7.7795Y-4.6378
X7.7795Y-4.6929
X7.7795Y-4.748
X7.7795Y-4.8031
X7.7795Y-4.8583
X7.7795Y-4.9134
X7.7795Y-4.9685
X7.7795Y-5.0236
X7.7795Y-5.0787
X7.7795Y-5.1339
X7.7795Y-5.189
X7.7795Y-5.2441
X7.7795Y-5.2992
X7.7795Y-5.3543
X7.7795Y-5.4094
X7.7795Y-5.4646
X7.7795Y-5.5197
X7.7795Y-5.5748
X7.7795Y-5.6299
X7.7795Y-5.685
X7.7795Y-5.7402
X7.7795Y-5.7953
X7.7795Y-5.8504
X7.7795Y-5.9055
X7.7795Y-5.9606
X7.7795Y-6.0157
X7.7795Y-6.0709
X7.8839Y-7.1063
X7.8957Y-7.8268
X7.8976Y-3.7402
X7.8976Y-3.7874
X7.8976Y-3.8346
X7.8976Y-3.8819
X7.8976Y-3.9764
X7.8976Y-4.0315
X7.8976Y-4.0866
X7.8976Y-4.1417
X7.8976Y-4.1969
X7.8976Y-4.252
X7.8976Y-4.3071
X7.8976Y-4.3622
X7.8976Y-4.4173
X7.8976Y-4.4724
X7.8976Y-4.5276
X7.8976Y-4.5827
X7.8976Y-4.6378
X7.8976Y-4.6929
X7.8976Y-4.748
X7.8976Y-4.8031
X7.8976Y-4.8583
X7.8976Y-4.9134
X7.8976Y-4.9685
X7.8976Y-5.0236
X7.8976Y-5.0787
X7.8976Y-5.1339
X7.8976Y-5.189
X7.8976Y-5.2441
X7.8976Y-5.2992
X7.8976Y-5.3543
X7.8976Y-5.4094
X7.8976Y-5.4646
X7.8976Y-5.5197
X7.8976Y-5.5748
X7.8976Y-5.6299
X7.8976Y-5.685
X7.8976Y-5.7402
X7.8976Y-5.7953
X7.8976Y-5.8504
X7.8976Y-5.9055
X7.8976Y-5.9606
X7.8976Y-6.0157
X7.8976Y-6.0709
X7.9232Y-7.1457
X7.9626Y-7.185
X8.002Y-7.2244
X8.0413Y-7.2638
X8.0807Y-7.3031
X8.0906Y-7.0571
X8.1201Y-7.3425
X8.1299Y-7.0965
X8.1594Y-7.3819
X8.1693Y-7.1358
X8.1988Y-7.4213
X8.2047Y-3.7402
X8.2047Y-3.7874
X8.2047Y-3.8346
X8.2047Y-3.8819
X8.2087Y-7.1752
X8.2382Y-7.4606
X8.248Y-7.2146
X8.2776Y-7.5
X8.2874Y-7.2539
X8.3169Y-7.5394
X8.3268Y-7.2933
X8.3563Y-7.5787
X8.3661Y-7.3327
X8.3957Y-7.6181
X8.4055Y-7.372
X8.435Y-7.6575
X8.4449Y-7.4114
X8.4488Y-4.126
X8.4744Y-7.6969
X8.4843Y-7.4508
X8.4882Y-4.0866
X8.5138Y-7.7362
X8.5236Y-7.4902
X8.5276Y-4.0472
X8.563Y-7.5295
X8.5669Y-4.0079
X8.6024Y-7.5689
X8.6417Y-7.6083
X8.6811Y-7.6476
X8.7205Y-7.687
X8.7244Y-4.4016
X8.7244Y-6.9685
X8.7244Y-7.0394
X8.7638Y-4.3622
X8.8031Y-4.3228
X8.8425Y-4.2835
X8.9134Y-6.9213
X8.9134Y-6.9685
X9.0Y-4.6772
X9.0394Y-4.6378
X9.0551Y-7.1024
X9.0787Y-4.5984
X9.1181Y-4.5591
X9.2756Y-4.9528
X9.315Y-4.9134
X9.3543Y-4.874
X9.3937Y-4.8346
X9.5512Y-5.2283
X9.5906Y-5.189
X9.6299Y-5.1496
X9.6693Y-5.1102
X9.8189Y-5.4961
X9.8583Y-5.4567
X9.8819Y-6.0315
X9.8976Y-5.4173
X9.9213Y-5.3504
X10.128Y-6.7913
X10.2283Y-5.7087
X10.2756Y-7.1575
X10.2992Y-5.3504
X10.2992Y-5.4252
X10.2992Y-5.5276
X10.2992Y-5.5748
X10.3307Y-5.6063
X10.3307Y-5.8504
X10.3307Y-7.1575
X10.3858Y-5.5512
X10.3858Y-5.6299
X10.4134Y-5.374
X10.4134Y-5.8465
X10.4331Y-4.4882
X10.4331Y-4.6654
X10.437Y-5.6457
X10.4429Y-4.7146
X10.4429Y-5.1181
X10.4646Y-5.5276
X10.4646Y-5.5748
X10.4724Y-4.252
X10.4724Y-5.6457
X10.4803Y-4.3071
X10.5157Y-5.6772
X10.5217Y-5.9547
X10.5512Y-4.3209
X10.561Y-7.0177
X10.5866Y-4.752
X10.5906Y-4.4291
X10.6004Y-4.3209
X10.6102Y-6.8209
X10.6299Y-4.8465
X10.6299Y-4.9134
X10.6339Y-5.3583
X10.6496Y-7.7953
X10.6614Y-5.3071
X10.6614Y-5.8425
X10.6693Y-5.4567
X10.6732Y-4.5276
X10.6732Y-4.563
X10.6732Y-5.5472
X10.6772Y-4.2776
X10.6791Y-4.9705
X10.689Y-4.6102
X10.7008Y-5.5669
X10.7008Y-7.1575
X10.7244Y-5.5906
X10.7283Y-4.5079
X10.7283Y-4.5433
X10.7283Y-5.1811
X10.7323Y-6.0315
X10.7382Y-4.065
X10.7402Y-4.7244
X10.748Y-4.9803
X10.752Y-4.5906
X10.7598Y-5.4232
X10.7598Y-5.5591
X10.7638Y-4.5433
X10.7638Y-5.8583
X10.7776Y-4.1339
X10.7874Y-4.7244
X10.7874Y-5.1811
X10.7874Y-5.8819
X10.811Y-5.4252
X10.8169Y-3.6909
X10.8268Y-4.7244
X10.8346Y-5.5315
X10.8465Y-5.4232
X10.8465Y-6.4469
X10.8583Y-5.5079
X10.8661Y-6.3091
X10.878Y-6.4449
X10.8819Y-6.0433
X10.8858Y-4.311
X10.8957Y-4.9705
X10.9055Y-4.1339
X10.9134Y-5.7717
X10.9291Y-5.6929
X10.937Y-5.4724
X10.9409Y-5.7874
X10.9449Y-4.8622
X10.9449Y-5.1811
X10.9488Y-5.9173
X10.9488Y-6.0433
X10.9606Y-5.4961
X10.9646Y-6.4075
X10.9803Y-5.7008
X10.9803Y-5.7559
X10.9843Y-5.4724
X10.9843Y-5.9173
X10.9843Y-6.0433
X11.0Y-7.2598
X11.0118Y-4.9016
X11.0157Y-5.4724
X11.0157Y-5.7559
X11.0157Y-6.9921
X11.0315Y-5.9173
X11.0335Y-4.1339
X11.0354Y-4.9252
X11.0472Y-5.7559
X11.0591Y-4.9016
X11.0669Y-5.4724
X11.0827Y-5.6063
X11.0827Y-5.7165
X11.0925Y-4.2913
X11.0925Y-4.6654
X11.0925Y-4.9016
X11.122Y-5.9173
X11.1417Y-4.1831
X11.1417Y-4.6063
X11.1516Y-5.5709
X11.1516Y-5.6102
X11.1693Y-6.3268
X11.1811Y-5.9547
X11.1909Y-6.4665
X11.2008Y-6.0433
X11.2126Y-5.3465
X11.2362Y-5.3228
X11.2362Y-5.3701
X11.2598Y-5.2992
X11.2638Y-5.5945
X11.2874Y-5.4764
X11.3228Y-6.0079
X11.3231Y-5.8895
X11.3327Y-5.6673
X11.3642Y-5.6437
X11.3878Y-5.6201
X11.3976Y-5.4331
X11.4449Y-6.3268
X11.4469Y-6.3878
X11.4724Y-5.3701
X11.4803Y-5.685
X11.4961Y-5.3465
X11.5197Y-5.3228
X11.5433Y-5.2992
X11.565Y-5.1575
X11.6043Y-5.1181
X11.6378Y-7.1654
X11.6437Y-5.0787
X11.6831Y-5.0394
X11.7224Y-5.0
X11.752Y-5.2559
X11.7618Y-4.9606
X11.7717Y-7.0276
X11.7815Y-6.4665
X11.7913Y-5.2165
X11.8012Y-4.9213
X11.8307Y-5.1772
X11.8406Y-4.8819
X11.8701Y-5.1378
X11.8799Y-4.8425
X11.9094Y-5.0984
X11.9094Y-7.0276
X11.9193Y-4.8031
X11.937Y-6.9843
X11.939Y-6.3268
X11.939Y-6.3878
X11.9488Y-5.0591
X11.9587Y-4.7638
X11.9783Y-4.1732
X11.9882Y-5.0197
X11.998Y-4.7244
X12.0236Y-4.0157
X12.0276Y-4.9803
X12.0374Y-4.685
X12.0472Y-6.8976
X12.0472Y-7.0276
X12.0669Y-4.9409
X12.0768Y-4.6457
X12.0866Y-4.2205
X12.1024Y-3.9331
X12.1063Y-4.9016
X12.1102Y-5.7402
X12.1161Y-4.6063
X12.1181Y-7.2598
X12.1339Y-5.7165
X12.1457Y-4.8622
X12.1555Y-4.5669
X12.1575Y-5.6929
X12.1811Y-5.6693
X12.185Y-4.8228
X12.1949Y-4.5276
X12.1949Y-6.7421
X12.2244Y-3.9055
X12.2244Y-4.7835
X12.2283Y-4.0157
X12.2283Y-4.0945
X12.2343Y-4.4882
X12.2441Y-4.2126
X12.2638Y-4.7441
X12.2736Y-4.4488
X12.2992Y-4.1732
X12.3031Y-4.7047
X12.313Y-4.4094
X12.3425Y-4.6654
X12.3819Y-4.626
X12.4016Y-7.0276
X12.4114Y-4.3406
X12.4213Y-4.5866
X12.4213Y-6.6142
X12.4409Y-4.5197
X12.4508Y-4.3012
X12.4567Y-6.6142
X12.4606Y-4.5472
X12.4724Y-4.4488
X12.4724Y-4.4882
X12.4803Y-6.5906
X12.4902Y-4.2618
X12.4902Y-6.4665
X12.4902Y-7.0866
X12.4902Y-7.2441
X12.5Y-4.5079
X12.5098Y-6.5354
X12.5098Y-6.5748
X12.5295Y-4.2224
X12.5394Y-4.4685
X12.5689Y-4.1831
X12.5689Y-6.8504
X12.5689Y-6.9094
X12.5787Y-4.4291
X12.5787Y-6.5059
X12.6083Y-4.1437
X12.6181Y-4.3898
X12.6181Y-6.5059
X12.6476Y-4.1043
X12.6575Y-4.3504
X12.687Y-4.065
X12.6969Y-4.311
X12.7264Y-4.0256
X12.7362Y-4.2717
X12.7362Y-6.5157
X12.7362Y-6.5551
X12.7657Y-3.9862
X12.7756Y-4.2323
X12.7756Y-6.5157
X12.7756Y-6.5551
X12.8051Y-3.9469
X12.815Y-4.1929
X12.8346Y-7.0866
X12.8346Y-7.2441
X12.8445Y-3.9075
X12.8543Y-4.1535
X12.8839Y-3.8681
X12.8937Y-4.1142
X12.9232Y-3.8287
X12.9331Y-4.0748
X12.9724Y-4.0354
X13.002Y-6.7421
X13.0118Y-3.9961
X13.0512Y-3.9567
X13.0709Y-3.6535
X13.0906Y-3.9173
X13.1102Y-3.6535
X13.1299Y-3.878
X13.1299Y-6.3681
X13.1693Y-7.0276
X13.2283Y-6.6142
X13.2972Y-6.4665
X13.3071Y-7.0276
X13.4055Y-4.7441
X13.4055Y-5.0787
X13.4055Y-5.2756
X13.4449Y-5.0787
X13.4449Y-5.2756
X13.4449Y-7.0276
X13.4843Y-5.0787
X13.4843Y-5.2756
X13.4941Y-4.311
X13.4941Y-4.4094
X13.4941Y-4.5079
X13.5236Y-4.7441
X13.5433Y-6.4016
X13.5433Y-6.7028
X13.5827Y-7.0276
X13.6024Y-4.9213
X13.7008Y-6.4016
X13.7008Y-6.7028
X13.7205Y-7.0276
X13.8091Y-4.8524
X13.8583Y-6.4016
X13.8583Y-6.7028
X13.8583Y-7.0276
X13.937Y-4.6457
X13.9961Y-7.0276
X14.0157Y-6.4016
X14.0157Y-6.7028
X14.1043Y-4.813
X14.1043Y-4.872
X14.1339Y-7.0276
X14.1417Y-6.8819
X14.1732Y-6.4016
X14.1732Y-6.7028
X14.2421Y-4.3189
X14.2421Y-4.3504
X14.2421Y-4.3819
X14.2717Y-7.0276
X14.4094Y-7.0276
X14.4587Y-6.939
X14.4764Y-5.374
X14.5177Y-4.7835
X14.5177Y-4.8819
X14.5177Y-4.9803
X14.5177Y-5.0787
X14.5177Y-5.1772
X14.5177Y-5.2756
X14.5374Y-5.6378
X14.5374Y-5.6693
X14.5374Y-5.7008
X14.5472Y-7.0276
X14.5669Y-6.8898
T3
X2.7362Y-5.0492
X3.1988Y-4.7835
T4
X2.9626Y-5.5709
X7.9921Y-7.0866
X8.1791Y-6.5846
T5
X10.5384Y-3.4508
X10.6384Y-3.3909
X10.9364Y-3.4508
X11.0364Y-3.3909
T6
X10.2776Y-7.6457
X10.3169Y-7.5748
X10.3583Y-7.6457
X10.3976Y-7.5748
X10.439Y-7.6457
X10.4783Y-7.5748
X10.6124Y-3.9335
X10.6624Y-3.8335
X10.7124Y-3.9335
X10.7624Y-3.8335
X10.8124Y-3.9335
X10.8624Y-3.8335
X10.9124Y-3.9335
X10.9624Y-3.8335
T7
X5.2362Y-5.9646
X5.3346Y-5.9646
X5.4331Y-5.9646
X6.0433Y-6.5453
X7.6181Y-6.9488
X12.1654Y-6.2106
X12.1654Y-6.2992
X12.1654Y-6.3878
X12.628Y-6.7323
X12.7165Y-6.7323
X12.8051Y-6.7323
X12.8346Y-6.25
X12.9035Y-6.3189
X12.9724Y-6.3878
X13.5039Y-4.0551
X13.5827Y-3.9764
X13.6614Y-3.8976
X13.8189Y-5.8071
X13.8878Y-5.7382
X13.9567Y-5.6693
T8
X3.189Y-2.9134
X3.3491Y-6.2277
X3.3661Y-2.9134
X3.4491Y-6.2277
X3.5491Y-6.2277
X6.1024Y-2.9134
X6.2795Y-2.9134
X8.9967Y-7.3602
X8.9967Y-7.4602
X9.0967Y-7.3602
X9.0967Y-7.4602
X9.1967Y-7.3602
X9.1967Y-7.4602
X9.2967Y-7.3602
X9.2967Y-7.4602
X9.3967Y-7.3602
X9.3967Y-7.4602
X11.3183Y-7.4417
X11.3728Y-7.5535
X11.4274Y-7.4417
X11.4819Y-7.5535
X11.5364Y-7.4417
X11.5909Y-7.5535
X11.6455Y-7.4417
X11.7Y-7.5535
X11.7545Y-7.4417
X11.8091Y-7.5535
X11.8636Y-7.4417
X11.9181Y-7.5535
X11.9726Y-7.4417
X12.0272Y-7.5535
X12.0817Y-7.4417
X12.465Y-3.3942
X12.465Y-3.4942
X12.565Y-3.3942
X12.565Y-3.4942
X12.665Y-3.3942
X12.665Y-3.4942
X12.765Y-3.3942
X12.765Y-3.4942
X12.865Y-3.3942
X12.865Y-3.4942
X12.965Y-3.3942
X12.965Y-3.4942
X13.065Y-3.3942
X13.065Y-3.4942
X13.165Y-3.3942
X13.165Y-3.4942
X13.1805Y-7.4417
X13.235Y-7.5535
X13.2896Y-7.4417
X13.3441Y-7.5535
X13.3986Y-7.4417
X13.4531Y-7.5535
X13.5077Y-7.4417
X13.5622Y-7.5535
X13.6167Y-7.4417
X13.6713Y-7.5535
X13.7258Y-7.4417
X13.7803Y-7.5535
X13.8348Y-7.4417
X13.8894Y-7.5535
X13.9439Y-7.4417
X13.9984Y-7.5535
X14.053Y-7.4417
X14.1075Y-7.5535
X14.162Y-7.4417
X14.2165Y-7.5535
X14.2711Y-7.4417
X14.3256Y-7.5535
X14.3801Y-7.4417
X14.4346Y-7.5535
X14.4892Y-7.4417
T9
X7.9913Y-4.3669
X7.9913Y-4.4669
X7.9913Y-4.5669
X7.9913Y-4.6669
X7.9913Y-4.7669
X7.9913Y-4.8669
X7.9913Y-4.9669
X7.9913Y-5.0669
X7.9913Y-5.1669
X7.9913Y-5.2669
X7.9913Y-5.3669
X7.9913Y-5.4669
X7.9913Y-5.5669
X7.9913Y-5.6669
X7.9913Y-5.7669
X7.9913Y-5.8669
X7.9913Y-5.9669
X7.9913Y-6.0669
X7.9913Y-6.1669
X7.9913Y-6.2669
X8.0913Y-4.3669
X8.0913Y-4.4669
X8.0913Y-4.5669
X8.0913Y-4.6669
X8.0913Y-4.7669
X8.0913Y-4.8669
X8.0913Y-4.9669
X8.0913Y-5.0669
X8.0913Y-5.1669
X8.0913Y-5.2669
X8.0913Y-5.3669
X8.0913Y-5.4669
X8.0913Y-5.5669
X8.0913Y-5.6669
X8.0913Y-5.7669
X8.0913Y-5.8669
X8.0913Y-5.9669
X8.0913Y-6.0669
X8.0913Y-6.1669
X8.0913Y-6.2669
T10
X2.2234Y-5.8455
X2.2234Y-6.2205
X2.2234Y-6.5955
X2.9734Y-5.8455
X2.9734Y-6.5955
T11
X10.187Y-7.6831
X10.5689Y-7.6831
T12
X2.3622Y-4.685
X5.2756Y-4.685
T13
X10.4813Y-3.7039
X11.0935Y-3.7039
T14
X2.2622Y-4.585
X2.2622Y-4.785
X2.4622Y-4.585
X2.4622Y-4.785
X5.1756Y-4.585
X5.1756Y-4.785
X5.3756Y-4.585
X5.3756Y-4.785
X13.9875Y-3.4035
X14.1434Y-3.4035
X14.2993Y-3.4035
X14.4552Y-3.4035
T15
X12.113Y-3.454
X13.5169Y-3.454
T16
X11.0445Y-7.4976
X12.3555Y-7.4976
X12.9077Y-7.4976
X14.762Y-7.4976
T17
X2.1654Y-3.4252
X2.1654Y-6.9291
X4.9606Y-3.4252
X4.9606Y-6.9291
X6.7126Y-5.1772
X8.4646Y-3.4252
X8.4646Y-6.9291
X10.0394Y-5.1772
X11.6142Y-3.4252
X11.6142Y-6.9291
X13.189Y-5.1772
X14.7638Y-3.4252
X14.7638Y-6.9291
T8
G00X10.1909Y-7.5748
M15
G01X10.1909Y-7.5197
M16
G05
G00X10.565Y-7.5748
M15
G01X10.565Y-7.5197
M16
G05
T0
M30
