M48
; DRILL file {KiCad 6.0.2+dfsg-1} date Sat 08 Jun 2024 10:33:13 PM CEST
; FORMAT={-:-/ absolute / inch / decimal}
; #@! TF.CreationDate,2024-06-08T22:33:13+02:00
; #@! TF.GenerationSoftware,Kicad,Pcbnew,6.0.2+dfsg-1
; #@! TF.FileFunction,NonPlated,1,2,NPTH
FMAT,2
INCH
; #@! TA.AperFunction,NonPlated,NPTH,ComponentDrill
T1C0.0390
; #@! TA.AperFunction,NonPlated,NPTH,ComponentDrill
T2C0.0984
; #@! TA.AperFunction,NonPlated,NPTH,ComponentDrill
T3C0.1083
; #@! TA.AperFunction,NonPlated,NPTH,ComponentDrill
T4C0.1181
; #@! TA.AperFunction,NonPlated,NPTH,ComponentDrill
T5C0.1280
%
G90
G05
T1
X8.7789Y-6.8685
X8.8189Y-7.0685
X8.8589Y-6.8685
T2
X2.7559Y-4.1339
X2.7559Y-6.1024
X7.4803Y-4.1339
X7.4803Y-6.1024
X14.5669Y-4.1339
X14.5669Y-6.1024
T3
X8.0413Y-4.1752
X8.0413Y-6.4587
X9.9705Y-4.1752
X9.9705Y-6.4587
T4
X2.9331Y-3.3661
X2.9331Y-4.3504
X4.7047Y-3.3661
X4.7047Y-4.3504
X5.8465Y-3.3661
X5.8465Y-4.3504
X7.6181Y-3.3661
X7.6181Y-4.3504
T5
X10.5624Y-3.5839
X11.0124Y-3.5839
T0
M30
